HIERARCHY
ROOT Hips
{
    OFFSET   0.000000   0.000000   0.000000
    CHANNELS 6 Xposition Yposition Zposition Zrotation Xrotation Yrotation
    JOINT Chest
    {
        OFFSET   0.000000   8.007230   0.000000
        CHANNELS 3 Zrotation Xrotation Yrotation
        JOINT Chest2
        {
            OFFSET   0.000000  22.077100   0.000000
            CHANNELS 3 Zrotation Xrotation Yrotation
            JOINT Neck
            {
                OFFSET   0.000000  23.254800  -0.000021
                CHANNELS 3 Zrotation Xrotation Yrotation
                JOINT Head
                {
                    OFFSET   0.000000  14.370000   1.956610
                    CHANNELS 3 Zrotation Xrotation Yrotation
                    End Site
                    {
                        OFFSET   0.000000  19.566000   0.000000
                    }
                }
            }
            JOINT LeftCollar
            {
                OFFSET   3.911900  19.017000  -0.467063
                CHANNELS 3 Zrotation Xrotation Yrotation
                JOINT LeftShoulder
                {
                    OFFSET  10.383700   0.000000   0.000000
                    CHANNELS 3 Zrotation Xrotation Yrotation
                    JOINT LeftElbow
                    {
                        OFFSET  26.662100   0.001529   0.000325
                        CHANNELS 3 Zrotation Xrotation Yrotation
                        JOINT LeftWrist
                        {
                            OFFSET  28.869000  -0.000011  -0.000096
                            CHANNELS 3 Zrotation Xrotation Yrotation
                            JOINT LeftFinger0
                            {
                                OFFSET   2.044650  -2.323460   3.252850
                                CHANNELS 3 Zrotation Xrotation Yrotation
                                JOINT LeftFinger01
                                {
                                    OFFSET   3.088130   0.000000   0.000000
                                    CHANNELS 3 Zrotation Xrotation Yrotation
                                    JOINT LeftFinger02
                                    {
                                        OFFSET   2.639460   0.000000   0.000000
                                        CHANNELS 3 Zrotation Xrotation Yrotation
                                        End Site
                                        {
                                            OFFSET   2.582190   0.000000   0.000000
                                        }
                                    }
                                }
                            }
                            JOINT LeftFinger1
                            {
                                OFFSET   8.364480   0.000000   3.252850
                                CHANNELS 3 Zrotation Xrotation Yrotation
                                JOINT LeftFinger11
                                {
                                    OFFSET   4.646930   0.000000   0.000000
                                    CHANNELS 3 Zrotation Xrotation Yrotation
                                    JOINT LeftFinger12
                                    {
                                        OFFSET   2.323460   0.000000   0.000000
                                        CHANNELS 3 Zrotation Xrotation Yrotation
                                        End Site
                                        {
                                            OFFSET   2.273050   0.000000   0.000000
                                        }
                                    }
                                }
                            }
                            JOINT LeftFinger2
                            {
                                OFFSET   8.364480   0.000016   1.078090
                                CHANNELS 3 Zrotation Xrotation Yrotation
                                JOINT LeftFinger21
                                {
                                    OFFSET   5.111620   0.000000   0.000000
                                    CHANNELS 3 Zrotation Xrotation Yrotation
                                    JOINT LeftFinger22
                                    {
                                        OFFSET   2.788160   0.000017   0.000000
                                        CHANNELS 3 Zrotation Xrotation Yrotation
                                        End Site
                                        {
                                            OFFSET   2.727660   0.000000   0.000000
                                        }
                                    }
                                }
                            }
                            JOINT LeftFinger3
                            {
                                OFFSET   7.899780   0.000015  -1.078090
                                CHANNELS 3 Zrotation Xrotation Yrotation
                                JOINT LeftFinger31
                                {
                                    OFFSET   4.646920   0.000000   0.000000
                                    CHANNELS 3 Zrotation Xrotation Yrotation
                                    JOINT LeftFinger32
                                    {
                                        OFFSET   2.323470   0.000000   0.000000
                                        CHANNELS 3 Zrotation Xrotation Yrotation
                                        End Site
                                        {
                                            OFFSET   2.273050   0.000000   0.000000
                                        }
                                    }
                                }
                            }
                            JOINT LeftFinger4
                            {
                                OFFSET   7.435090   0.000000  -3.252850
                                CHANNELS 3 Zrotation Xrotation Yrotation
                                JOINT LeftFinger41
                                {
                                    OFFSET   3.717550   0.000000   0.000000
                                    CHANNELS 3 Zrotation Xrotation Yrotation
                                    JOINT LeftFinger42
                                    {
                                        OFFSET   1.858760   0.000000   0.000000
                                        CHANNELS 3 Zrotation Xrotation Yrotation
                                        End Site
                                        {
                                            OFFSET   1.818440   0.000000   0.000000
                                        }
                                    }
                                }
                            }
                        }
                    }
                }
            }
            JOINT RightCollar
            {
                OFFSET  -3.911900  19.017000  -0.467062
                CHANNELS 3 Zrotation Xrotation Yrotation
                JOINT RightShoulder
                {
                    OFFSET -10.383700   0.000015   0.000000
                    CHANNELS 3 Zrotation Xrotation Yrotation
                    JOINT RightElbow
                    {
                        OFFSET -26.662100   0.001341   0.000385
                        CHANNELS 3 Zrotation Xrotation Yrotation
                        JOINT RightWrist
                        {
                            OFFSET -28.869000   0.000025  -0.000080
                            CHANNELS 3 Zrotation Xrotation Yrotation
                            JOINT RightFinger0
                            {
                                OFFSET  -2.044650  -2.323490   3.252850
                                CHANNELS 3 Zrotation Xrotation Yrotation
                                JOINT RightFinger01
                                {
                                    OFFSET  -3.088130   0.000000   0.000000
                                    CHANNELS 3 Zrotation Xrotation Yrotation
                                    JOINT RightFinger02
                                    {
                                        OFFSET  -2.639460   0.000000   0.000000
                                        CHANNELS 3 Zrotation Xrotation Yrotation
                                        End Site
                                        {
                                            OFFSET  -2.582190   0.000000   0.000000
                                        }
                                    }
                                }
                            }
                            JOINT RightFinger1
                            {
                                OFFSET  -8.364480   0.000000   3.252850
                                CHANNELS 3 Zrotation Xrotation Yrotation
                                JOINT RightFinger11
                                {
                                    OFFSET  -4.646930   0.000000   0.000000
                                    CHANNELS 3 Zrotation Xrotation Yrotation
                                    JOINT RightFinger12
                                    {
                                        OFFSET  -2.323470   0.000000   0.000000
                                        CHANNELS 3 Zrotation Xrotation Yrotation
                                        End Site
                                        {
                                            OFFSET  -2.273050   0.000000   0.000000
                                        }
                                    }
                                }
                            }
                            JOINT RightFinger2
                            {
                                OFFSET  -8.364480   0.000000   1.078090
                                CHANNELS 3 Zrotation Xrotation Yrotation
                                JOINT RightFinger21
                                {
                                    OFFSET  -5.111610   0.000000   0.000000
                                    CHANNELS 3 Zrotation Xrotation Yrotation
                                    JOINT RightFinger22
                                    {
                                        OFFSET  -2.788160   0.000000   0.000000
                                        CHANNELS 3 Zrotation Xrotation Yrotation
                                        End Site
                                        {
                                            OFFSET  -2.727660   0.000000   0.000000
                                        }
                                    }
                                }
                            }
                            JOINT RightFinger3
                            {
                                OFFSET  -7.899780   0.000000  -1.078090
                                CHANNELS 3 Zrotation Xrotation Yrotation
                                JOINT RightFinger31
                                {
                                    OFFSET  -4.646920   0.000000   0.000000
                                    CHANNELS 3 Zrotation Xrotation Yrotation
                                    JOINT RightFinger32
                                    {
                                        OFFSET  -2.323470   0.000000   0.000000
                                        CHANNELS 3 Zrotation Xrotation Yrotation
                                        End Site
                                        {
                                            OFFSET  -2.273050   0.000000   0.000000
                                        }
                                    }
                                }
                            }
                            JOINT RightFinger4
                            {
                                OFFSET  -7.435090   0.000000  -3.252850
                                CHANNELS 3 Zrotation Xrotation Yrotation
                                JOINT RightFinger41
                                {
                                    OFFSET  -3.717550   0.000000   0.000000
                                    CHANNELS 3 Zrotation Xrotation Yrotation
                                    JOINT RightFinger42
                                    {
                                        OFFSET  -1.858770   0.000000   0.000000
                                        CHANNELS 3 Zrotation Xrotation Yrotation
                                        End Site
                                        {
                                            OFFSET  -1.818440   0.000000   0.000000
                                        }
                                    }
                                }
                            }
                        }
                    }
                }
            }
        }
    }
    JOINT LeftHip
    {
        OFFSET   9.783010   0.000000   0.000000
        CHANNELS 3 Zrotation Xrotation Yrotation
        JOINT LeftKnee
        {
            OFFSET   0.000070 -41.789100   0.000028
            CHANNELS 3 Zrotation Xrotation Yrotation
            JOINT LeftAnkle
            {
                OFFSET   0.000087 -41.133200  -0.000100
                CHANNELS 3 Zrotation Xrotation Yrotation
                JOINT LeftToe
                {
                    OFFSET   0.000000  -6.358960  14.674500
                    CHANNELS 3 Zrotation Xrotation Yrotation
                    End Site
                    {
                        OFFSET   0.000000   0.000000   3.913200
                    }
                }
            }
        }
    }
    JOINT RightHip
    {
        OFFSET  -9.783020   0.000000   0.000000
        CHANNELS 3 Zrotation Xrotation Yrotation
        JOINT RightKnee
        {
            OFFSET   0.000044 -41.789100  -0.000870
            CHANNELS 3 Zrotation Xrotation Yrotation
            JOINT RightAnkle
            {
                OFFSET  -0.000090 -41.133200  -0.000245
                CHANNELS 3 Zrotation Xrotation Yrotation
                JOINT RightToe
                {
                    OFFSET   0.000000  -6.358960  14.674500
                    CHANNELS 3 Zrotation Xrotation Yrotation
                    End Site
                    {
                        OFFSET   0.000000   0.000000   3.913200
                    }
                }
            }
        }
    }
}
MOTION
Frames: 5
Frame Time:   0.016667
 -1.087370  90.056200   1.069070  -2.036630  -8.515320   2.086210   0.949702   5.620780  -0.209252   1.934200  11.237200  -0.516368   4.443600   4.120390  -0.319927   7.404200   8.204480  -2.190870  -4.396850  -2.057090   7.164780 -72.383600  25.612700  -5.290700  -3.635080  -6.754960 -16.077500  13.712200   5.554300  11.333300  39.123200  22.636600 -60.219500 -21.443300  -0.056757  -0.022230  -5.721660  -0.025079  -0.025466 -31.695000   8.549700 -13.536900 -26.764100   0.037139   0.100950 -18.734800  -0.000955   0.086100 -28.767400   3.652020  -6.617890 -43.467800   0.137435  -0.064594 -28.949700   0.095931   0.061991 -27.725500   3.245750  -6.148660 -31.367800   0.499249  -0.093949 -20.892700   0.232662   0.300857 -32.717700   0.739446  -1.148000 -49.087600   0.000000   0.004116 -32.692300   0.000000   0.000000   6.660050   0.018331  12.112400  51.057900  18.140200  52.810000  -6.544510 -17.077300 106.337000 -39.938100  27.656800  52.357300 -31.466500  34.710200  68.976600  43.505000  -0.003646   0.001617  18.968000  -0.001326  -0.001296  58.552700   2.271720   1.387670  47.925600   0.000652   0.001997  35.944200   0.000085  -0.000442  62.165900  -2.266090  -1.197230  62.189400   0.002211  -0.000510  46.642100  -0.000387   0.007077  70.205400  -5.297270  -1.904510  70.293400  -0.003819   0.002818  52.720100  -0.000804   0.000447  77.424300  -9.765220  -2.168100 110.000000   0.001070  -0.001432  77.531800   0.007310   0.002263   3.915930   9.050780   0.658285   0.399393   2.080850  12.860200  -6.912480  -3.650350   3.411880  -0.000000   0.000000   0.000000   3.698930   9.615750 -11.648700   0.136213   2.032920  -7.637380 -10.225800   0.620746  -1.205190  -0.000000   0.000000   0.000000
 -1.073520  90.056000   1.080740  -2.055310  -8.508800   2.012240   0.941976   5.619510  -0.206387   1.918360  11.234800  -0.509983   4.473000   4.141880  -0.322420   7.454270   8.244760  -2.131280  -4.381200  -2.065930   7.138890 -72.352900  25.690600  -5.327920  -3.637660  -6.793970 -16.024800  13.726500   5.565300  11.309200  39.125600  22.589300 -60.161900 -21.422200  -0.030992  -0.005278  -5.711090  -0.014438  -0.007547 -31.668800   8.602700 -13.630300 -26.753900   0.020177   0.012608 -18.727700   0.016211   0.014185 -28.767700   3.664420  -6.640340 -43.471100   0.116734  -0.089626 -28.951900   0.103340   0.035021 -27.716800   3.298800  -6.250110 -31.361000   0.349385  -0.043766 -20.887100   0.138944   0.224690 -32.709400   0.739644  -1.151030 -49.075200  -0.017263   0.004112 -32.684100  -0.006723  -0.018219   6.632000  -0.020260  12.108100  50.699200  18.049500  53.040300  -6.608720 -17.433900 106.239000 -40.007900  28.130300  53.302100 -30.527700  33.649400  68.092900  44.262500  -0.003709   0.001660  19.734100  -0.001333  -0.001236  58.412700   1.653090   1.009420  47.807800   0.000614   0.001637  35.855900  -0.000037  -0.000300  62.037900  -2.285480  -1.214220  62.062000   0.002188  -0.000509  46.546500  -0.000388   0.007062  70.073800  -5.308850  -1.922480  70.162800  -0.003787   0.002768  52.622200  -0.000792   0.000397  77.304100  -9.759260  -2.188410 110.000000   0.001104  -0.001444  77.413300   0.007347   0.002206   3.915360   9.058680   0.647696   0.391356   2.086250  12.893200  -6.896610  -3.673000   3.461200  -0.000000   0.000000   0.000000   3.690280   9.613190 -11.667100   0.142618   2.038420  -7.602380 -10.224500   0.614391  -1.148220   0.000000   0.000000   0.000000
 -1.058040  90.055900   1.090830  -2.074960  -8.497880   1.937450   0.934324   5.618960  -0.201999   1.902490  11.233800  -0.500190   4.501960   4.147960  -0.324109   7.502800   8.255340  -2.051170  -4.365240  -2.077500   7.121050 -72.319100  25.757500  -5.365100  -3.633050  -6.808790 -15.999800  13.739800   5.567120  11.293200  39.125000  22.541800 -60.104500 -21.397000  -0.006453   0.006697  -5.698510  -0.003704   0.002995 -31.653900   8.639960 -13.694500 -26.749100   0.003586  -0.066633 -18.724300   0.028375  -0.053798 -28.773800   3.678330  -6.663320 -43.482000   0.100388  -0.121259 -28.959100   0.117258   0.007209 -27.713800   3.335800  -6.320650 -31.360200   0.139860   0.006416 -20.885900   0.045225   0.103271 -32.707700   0.739672  -1.151660 -49.072700  -0.034527   0.004097 -32.682400  -0.013447  -0.036364   6.599560  -0.055307  12.105700  50.298100  17.964500  53.242700  -6.631460 -17.682000 106.274000 -39.839700  28.483800  53.869500 -30.026300  32.875800  67.355800  44.920800  -0.003755   0.001703  20.415800  -0.001337  -0.001179  58.200600   1.267410   0.774484  47.630000   0.000590   0.001258  35.722500  -0.000166  -0.000176  61.786900  -2.323620  -1.247800  61.812200   0.002162  -0.000504  46.359200  -0.000388   0.007047  69.828000  -5.330630  -1.956230  69.919000  -0.003755   0.002718  52.439300  -0.000778   0.000348  77.085600  -9.751580  -2.225320 110.000000   0.001138  -0.001454  77.198100   0.007383   0.002147   3.913600   9.060630   0.639967   0.382733   2.095920  12.924300  -6.878950  -3.696350   3.512970   0.000000   0.000000  -0.000000   3.680170   9.605550 -11.686500   0.149759   2.042240  -7.568240 -10.221800   0.609747  -1.087470  -0.000000   0.000000   0.000000
 -1.041060  90.055800   1.100310  -2.093220  -8.478730   1.866920   0.928073   5.618240  -0.198769   1.889650  11.232500  -0.492925   4.520900   4.134900  -0.323958   7.538640   8.228430  -1.941220  -4.349350  -2.092190   7.120060 -72.293900  25.801400  -5.390370  -3.620600  -6.802330 -16.010300  13.748300   5.517170  11.292900  39.139000  22.546100 -60.116100 -21.357500   0.002081   0.005541  -5.678780   0.000795   0.002236 -31.676000   8.619710 -13.651600 -26.761500  -0.005116  -0.088236 -18.732900   0.027841  -0.076138 -28.790200   3.698730  -6.695960 -43.509200   0.092115  -0.161821 -28.977200   0.135888  -0.020007 -27.724100   3.313050  -6.275310 -31.406300   0.051083  -0.054779 -20.916600   0.063062  -0.001574 -32.741800   0.732701  -1.139310 -49.123600   0.112483  -0.009811 -32.716400   0.040908   0.132895   6.562050  -0.075637  12.105800  49.959400  17.861200  53.373200  -6.648510 -17.798100 106.428000 -39.391700  28.668600  53.983900 -29.894900  32.788600  67.136500  45.186200  -0.003777   0.001733  20.700300  -0.001326  -0.001119  58.085100   2.213600   1.362130  47.530400   0.000569   0.000865  35.647800  -0.000308  -0.000089  61.483900  -2.369960  -1.288840  61.510600   0.002142  -0.000496  46.133000  -0.000391   0.007035  69.560800  -5.354620  -1.993300  69.653900  -0.003726   0.002663  52.240400  -0.000765   0.000298  76.862800  -9.742970  -2.263030 110.000000   0.001167  -0.001464  76.978600   0.007419   0.002088   3.909250   9.051940   0.640566   0.372004   2.107060  12.945100  -6.860570  -3.718720   3.564900  -0.000000   0.000000  -0.000000   3.666450   9.590810 -11.701500   0.158638   2.043530  -7.545020 -10.216500   0.604408  -1.022950  -0.000000   0.000000   0.000000
 -1.023070  90.055700   1.110210  -2.107900  -8.455970   1.801680   0.922734   5.617590  -0.197063   1.878640  11.231200  -0.489071   4.529040   4.107760  -0.322960   7.545990   8.173320  -1.809820  -4.333660  -2.107570   7.119980 -72.270500  25.829100  -5.409290  -3.607510  -6.787290 -16.041700  13.754200   5.448440  11.292200  39.177200  22.573200 -60.144200 -21.314900   0.011193   0.004384  -5.657460   0.005440   0.001477 -31.695700   8.597500 -13.608700 -26.773800  -0.012999  -0.092800 -18.741600   0.024100  -0.082601 -28.800600   3.719410  -6.729560 -43.528700   0.083383  -0.187072 -28.990200   0.148008  -0.042429 -27.734000   3.290290  -6.229970 -31.452500   0.021967  -0.143555 -20.947300   0.095660  -0.061166 -32.775900   0.725730  -1.126960 -49.174300   0.305035  -0.031614 -32.750900   0.116219   0.325520   6.519860  -0.083267  12.106900  49.688900  17.750200  53.463800  -6.728460 -17.860900 106.593000 -38.938000  28.768600  53.972400 -29.861300  32.805600  67.077800  45.321700  -0.003782   0.001758  20.849600  -0.001315  -0.001060  57.935100   3.872050   2.404220  47.445200   0.000560   0.000457  35.583900  -0.000473   0.000000  61.182200  -2.416180  -1.329900  61.210200   0.002118  -0.000488  45.907700  -0.000393   0.007023  69.292200  -5.378810  -2.030670  69.387500  -0.003697   0.002609  52.040600  -0.000753   0.000247  76.639300  -9.734420  -2.300790 110.000000   0.001194  -0.001470  76.758300   0.007455   0.002029   3.904070   9.039660   0.642837   0.360810   2.114050  12.954800  -6.843350  -3.740060   3.615800   0.000000   0.000000  -0.000000   3.649310   9.573160 -11.716600   0.169734   2.044000  -7.526000 -10.210600   0.598404  -0.958821  -0.000000   0.000000   0.000000
